%TF.GenerationSoftware,KiCad,Pcbnew,(5.1.10)-1*%
%TF.CreationDate,2021-07-14T17:28:46+02:00*%
%TF.ProjectId,kailh-keys,6b61696c-682d-46b6-9579-732e6b696361,rev?*%
%TF.SameCoordinates,Original*%
%TF.FileFunction,Soldermask,Top*%
%TF.FilePolarity,Negative*%
%FSLAX46Y46*%
G04 Gerber Fmt 4.6, Leading zero omitted, Abs format (unit mm)*
G04 Created by KiCad (PCBNEW (5.1.10)-1) date 2021-07-14 17:28:46*
%MOMM*%
%LPD*%
G01*
G04 APERTURE LIST*
%ADD10C,1.700000*%
%ADD11O,1.600000X1.600000*%
%ADD12R,1.600000X1.600000*%
%ADD13C,5.000000*%
%ADD14C,0.800000*%
%ADD15C,1.524000*%
%ADD16C,1.600000*%
G04 APERTURE END LIST*
%TO.C,SW1*%
G36*
G01*
X174445000Y-63994900D02*
X174445000Y-63519900D01*
G75*
G02*
X174682500Y-63282400I237500J0D01*
G01*
X175257500Y-63282400D01*
G75*
G02*
X175495000Y-63519900I0J-237500D01*
G01*
X175495000Y-63994900D01*
G75*
G02*
X175257500Y-64232400I-237500J0D01*
G01*
X174682500Y-64232400D01*
G75*
G02*
X174445000Y-63994900I0J237500D01*
G01*
G37*
G36*
G01*
X176195000Y-63994900D02*
X176195000Y-63519900D01*
G75*
G02*
X176432500Y-63282400I237500J0D01*
G01*
X177007500Y-63282400D01*
G75*
G02*
X177245000Y-63519900I0J-237500D01*
G01*
X177245000Y-63994900D01*
G75*
G02*
X177007500Y-64232400I-237500J0D01*
G01*
X176432500Y-64232400D01*
G75*
G02*
X176195000Y-63994900I0J237500D01*
G01*
G37*
D10*
X178004000Y-73015700D03*
X171412700Y-72736300D03*
X181306000Y-62919200D03*
X170726900Y-62906500D03*
%TD*%
%TO.C,SW2*%
G36*
G01*
X192145000Y-63994900D02*
X192145000Y-63519900D01*
G75*
G02*
X192382500Y-63282400I237500J0D01*
G01*
X192957500Y-63282400D01*
G75*
G02*
X193195000Y-63519900I0J-237500D01*
G01*
X193195000Y-63994900D01*
G75*
G02*
X192957500Y-64232400I-237500J0D01*
G01*
X192382500Y-64232400D01*
G75*
G02*
X192145000Y-63994900I0J237500D01*
G01*
G37*
G36*
G01*
X193895000Y-63994900D02*
X193895000Y-63519900D01*
G75*
G02*
X194132500Y-63282400I237500J0D01*
G01*
X194707500Y-63282400D01*
G75*
G02*
X194945000Y-63519900I0J-237500D01*
G01*
X194945000Y-63994900D01*
G75*
G02*
X194707500Y-64232400I-237500J0D01*
G01*
X194132500Y-64232400D01*
G75*
G02*
X193895000Y-63994900I0J237500D01*
G01*
G37*
X195704000Y-73015700D03*
X189112700Y-72736300D03*
X199006000Y-62919200D03*
X188426900Y-62906500D03*
%TD*%
%TO.C,SW3*%
G36*
G01*
X209845000Y-63994900D02*
X209845000Y-63519900D01*
G75*
G02*
X210082500Y-63282400I237500J0D01*
G01*
X210657500Y-63282400D01*
G75*
G02*
X210895000Y-63519900I0J-237500D01*
G01*
X210895000Y-63994900D01*
G75*
G02*
X210657500Y-64232400I-237500J0D01*
G01*
X210082500Y-64232400D01*
G75*
G02*
X209845000Y-63994900I0J237500D01*
G01*
G37*
G36*
G01*
X211595000Y-63994900D02*
X211595000Y-63519900D01*
G75*
G02*
X211832500Y-63282400I237500J0D01*
G01*
X212407500Y-63282400D01*
G75*
G02*
X212645000Y-63519900I0J-237500D01*
G01*
X212645000Y-63994900D01*
G75*
G02*
X212407500Y-64232400I-237500J0D01*
G01*
X211832500Y-64232400D01*
G75*
G02*
X211595000Y-63994900I0J237500D01*
G01*
G37*
X213404000Y-73015700D03*
X206812700Y-72736300D03*
X216706000Y-62919200D03*
X206126900Y-62906500D03*
%TD*%
%TO.C,SW4*%
G36*
G01*
X227545000Y-63994900D02*
X227545000Y-63519900D01*
G75*
G02*
X227782500Y-63282400I237500J0D01*
G01*
X228357500Y-63282400D01*
G75*
G02*
X228595000Y-63519900I0J-237500D01*
G01*
X228595000Y-63994900D01*
G75*
G02*
X228357500Y-64232400I-237500J0D01*
G01*
X227782500Y-64232400D01*
G75*
G02*
X227545000Y-63994900I0J237500D01*
G01*
G37*
G36*
G01*
X229295000Y-63994900D02*
X229295000Y-63519900D01*
G75*
G02*
X229532500Y-63282400I237500J0D01*
G01*
X230107500Y-63282400D01*
G75*
G02*
X230345000Y-63519900I0J-237500D01*
G01*
X230345000Y-63994900D01*
G75*
G02*
X230107500Y-64232400I-237500J0D01*
G01*
X229532500Y-64232400D01*
G75*
G02*
X229295000Y-63994900I0J237500D01*
G01*
G37*
X231104000Y-73015700D03*
X224512700Y-72736300D03*
X234406000Y-62919200D03*
X223826900Y-62906500D03*
%TD*%
%TO.C,SW5*%
G36*
G01*
X174445000Y-80994900D02*
X174445000Y-80519900D01*
G75*
G02*
X174682500Y-80282400I237500J0D01*
G01*
X175257500Y-80282400D01*
G75*
G02*
X175495000Y-80519900I0J-237500D01*
G01*
X175495000Y-80994900D01*
G75*
G02*
X175257500Y-81232400I-237500J0D01*
G01*
X174682500Y-81232400D01*
G75*
G02*
X174445000Y-80994900I0J237500D01*
G01*
G37*
G36*
G01*
X176195000Y-80994900D02*
X176195000Y-80519900D01*
G75*
G02*
X176432500Y-80282400I237500J0D01*
G01*
X177007500Y-80282400D01*
G75*
G02*
X177245000Y-80519900I0J-237500D01*
G01*
X177245000Y-80994900D01*
G75*
G02*
X177007500Y-81232400I-237500J0D01*
G01*
X176432500Y-81232400D01*
G75*
G02*
X176195000Y-80994900I0J237500D01*
G01*
G37*
X178004000Y-90015700D03*
X171412700Y-89736300D03*
X181306000Y-79919200D03*
X170726900Y-79906500D03*
%TD*%
%TO.C,SW6*%
G36*
G01*
X192145000Y-80994900D02*
X192145000Y-80519900D01*
G75*
G02*
X192382500Y-80282400I237500J0D01*
G01*
X192957500Y-80282400D01*
G75*
G02*
X193195000Y-80519900I0J-237500D01*
G01*
X193195000Y-80994900D01*
G75*
G02*
X192957500Y-81232400I-237500J0D01*
G01*
X192382500Y-81232400D01*
G75*
G02*
X192145000Y-80994900I0J237500D01*
G01*
G37*
G36*
G01*
X193895000Y-80994900D02*
X193895000Y-80519900D01*
G75*
G02*
X194132500Y-80282400I237500J0D01*
G01*
X194707500Y-80282400D01*
G75*
G02*
X194945000Y-80519900I0J-237500D01*
G01*
X194945000Y-80994900D01*
G75*
G02*
X194707500Y-81232400I-237500J0D01*
G01*
X194132500Y-81232400D01*
G75*
G02*
X193895000Y-80994900I0J237500D01*
G01*
G37*
X195704000Y-90015700D03*
X189112700Y-89736300D03*
X199006000Y-79919200D03*
X188426900Y-79906500D03*
%TD*%
%TO.C,SW7*%
G36*
G01*
X209845000Y-80994900D02*
X209845000Y-80519900D01*
G75*
G02*
X210082500Y-80282400I237500J0D01*
G01*
X210657500Y-80282400D01*
G75*
G02*
X210895000Y-80519900I0J-237500D01*
G01*
X210895000Y-80994900D01*
G75*
G02*
X210657500Y-81232400I-237500J0D01*
G01*
X210082500Y-81232400D01*
G75*
G02*
X209845000Y-80994900I0J237500D01*
G01*
G37*
G36*
G01*
X211595000Y-80994900D02*
X211595000Y-80519900D01*
G75*
G02*
X211832500Y-80282400I237500J0D01*
G01*
X212407500Y-80282400D01*
G75*
G02*
X212645000Y-80519900I0J-237500D01*
G01*
X212645000Y-80994900D01*
G75*
G02*
X212407500Y-81232400I-237500J0D01*
G01*
X211832500Y-81232400D01*
G75*
G02*
X211595000Y-80994900I0J237500D01*
G01*
G37*
X213404000Y-90015700D03*
X206812700Y-89736300D03*
X216706000Y-79919200D03*
X206126900Y-79906500D03*
%TD*%
%TO.C,SW8*%
G36*
G01*
X227545000Y-80994900D02*
X227545000Y-80519900D01*
G75*
G02*
X227782500Y-80282400I237500J0D01*
G01*
X228357500Y-80282400D01*
G75*
G02*
X228595000Y-80519900I0J-237500D01*
G01*
X228595000Y-80994900D01*
G75*
G02*
X228357500Y-81232400I-237500J0D01*
G01*
X227782500Y-81232400D01*
G75*
G02*
X227545000Y-80994900I0J237500D01*
G01*
G37*
G36*
G01*
X229295000Y-80994900D02*
X229295000Y-80519900D01*
G75*
G02*
X229532500Y-80282400I237500J0D01*
G01*
X230107500Y-80282400D01*
G75*
G02*
X230345000Y-80519900I0J-237500D01*
G01*
X230345000Y-80994900D01*
G75*
G02*
X230107500Y-81232400I-237500J0D01*
G01*
X229532500Y-81232400D01*
G75*
G02*
X229295000Y-80994900I0J237500D01*
G01*
G37*
X231104000Y-90015700D03*
X224512700Y-89736300D03*
X234406000Y-79919200D03*
X223826900Y-79906500D03*
%TD*%
%TO.C,SW9*%
G36*
G01*
X174445000Y-97694900D02*
X174445000Y-97219900D01*
G75*
G02*
X174682500Y-96982400I237500J0D01*
G01*
X175257500Y-96982400D01*
G75*
G02*
X175495000Y-97219900I0J-237500D01*
G01*
X175495000Y-97694900D01*
G75*
G02*
X175257500Y-97932400I-237500J0D01*
G01*
X174682500Y-97932400D01*
G75*
G02*
X174445000Y-97694900I0J237500D01*
G01*
G37*
G36*
G01*
X176195000Y-97694900D02*
X176195000Y-97219900D01*
G75*
G02*
X176432500Y-96982400I237500J0D01*
G01*
X177007500Y-96982400D01*
G75*
G02*
X177245000Y-97219900I0J-237500D01*
G01*
X177245000Y-97694900D01*
G75*
G02*
X177007500Y-97932400I-237500J0D01*
G01*
X176432500Y-97932400D01*
G75*
G02*
X176195000Y-97694900I0J237500D01*
G01*
G37*
X178004000Y-106715700D03*
X171412700Y-106436300D03*
X181306000Y-96619200D03*
X170726900Y-96606500D03*
%TD*%
%TO.C,SW10*%
G36*
G01*
X192145000Y-97694900D02*
X192145000Y-97219900D01*
G75*
G02*
X192382500Y-96982400I237500J0D01*
G01*
X192957500Y-96982400D01*
G75*
G02*
X193195000Y-97219900I0J-237500D01*
G01*
X193195000Y-97694900D01*
G75*
G02*
X192957500Y-97932400I-237500J0D01*
G01*
X192382500Y-97932400D01*
G75*
G02*
X192145000Y-97694900I0J237500D01*
G01*
G37*
G36*
G01*
X193895000Y-97694900D02*
X193895000Y-97219900D01*
G75*
G02*
X194132500Y-96982400I237500J0D01*
G01*
X194707500Y-96982400D01*
G75*
G02*
X194945000Y-97219900I0J-237500D01*
G01*
X194945000Y-97694900D01*
G75*
G02*
X194707500Y-97932400I-237500J0D01*
G01*
X194132500Y-97932400D01*
G75*
G02*
X193895000Y-97694900I0J237500D01*
G01*
G37*
X195704000Y-106715700D03*
X189112700Y-106436300D03*
X199006000Y-96619200D03*
X188426900Y-96606500D03*
%TD*%
%TO.C,SW11*%
G36*
G01*
X209845000Y-97694900D02*
X209845000Y-97219900D01*
G75*
G02*
X210082500Y-96982400I237500J0D01*
G01*
X210657500Y-96982400D01*
G75*
G02*
X210895000Y-97219900I0J-237500D01*
G01*
X210895000Y-97694900D01*
G75*
G02*
X210657500Y-97932400I-237500J0D01*
G01*
X210082500Y-97932400D01*
G75*
G02*
X209845000Y-97694900I0J237500D01*
G01*
G37*
G36*
G01*
X211595000Y-97694900D02*
X211595000Y-97219900D01*
G75*
G02*
X211832500Y-96982400I237500J0D01*
G01*
X212407500Y-96982400D01*
G75*
G02*
X212645000Y-97219900I0J-237500D01*
G01*
X212645000Y-97694900D01*
G75*
G02*
X212407500Y-97932400I-237500J0D01*
G01*
X211832500Y-97932400D01*
G75*
G02*
X211595000Y-97694900I0J237500D01*
G01*
G37*
X213404000Y-106715700D03*
X206812700Y-106436300D03*
X216706000Y-96619200D03*
X206126900Y-96606500D03*
%TD*%
%TO.C,SW12*%
G36*
G01*
X227545000Y-97694900D02*
X227545000Y-97219900D01*
G75*
G02*
X227782500Y-96982400I237500J0D01*
G01*
X228357500Y-96982400D01*
G75*
G02*
X228595000Y-97219900I0J-237500D01*
G01*
X228595000Y-97694900D01*
G75*
G02*
X228357500Y-97932400I-237500J0D01*
G01*
X227782500Y-97932400D01*
G75*
G02*
X227545000Y-97694900I0J237500D01*
G01*
G37*
G36*
G01*
X229295000Y-97694900D02*
X229295000Y-97219900D01*
G75*
G02*
X229532500Y-96982400I237500J0D01*
G01*
X230107500Y-96982400D01*
G75*
G02*
X230345000Y-97219900I0J-237500D01*
G01*
X230345000Y-97694900D01*
G75*
G02*
X230107500Y-97932400I-237500J0D01*
G01*
X229532500Y-97932400D01*
G75*
G02*
X229295000Y-97694900I0J237500D01*
G01*
G37*
X231104000Y-106715700D03*
X224512700Y-106436300D03*
X234406000Y-96619200D03*
X223826900Y-96606500D03*
%TD*%
D11*
%TO.C,D1*%
X184785000Y-66675000D03*
D12*
X184785000Y-74295000D03*
%TD*%
D11*
%TO.C,D2*%
X184785000Y-90805000D03*
D12*
X184785000Y-83185000D03*
%TD*%
%TO.C,D3*%
X202565000Y-66675000D03*
D11*
X202565000Y-74295000D03*
%TD*%
D12*
%TO.C,D4*%
X220345000Y-65405000D03*
D11*
X220345000Y-73025000D03*
%TD*%
D12*
%TO.C,D5*%
X180975000Y-93345000D03*
D11*
X173355000Y-93345000D03*
%TD*%
%TO.C,D6*%
X184785000Y-107315000D03*
D12*
X184785000Y-99695000D03*
%TD*%
D11*
%TO.C,D7*%
X202565000Y-90805000D03*
D12*
X202565000Y-83185000D03*
%TD*%
%TO.C,D8*%
X220345000Y-83185000D03*
D11*
X220345000Y-90805000D03*
%TD*%
%TO.C,D9*%
X177165000Y-111125000D03*
D12*
X184785000Y-111125000D03*
%TD*%
%TO.C,D10*%
X197485000Y-111125000D03*
D11*
X189865000Y-111125000D03*
%TD*%
D12*
%TO.C,D11*%
X202565000Y-99695000D03*
D11*
X202565000Y-107315000D03*
%TD*%
%TO.C,D12*%
X220345000Y-107315000D03*
D12*
X220345000Y-99695000D03*
%TD*%
D13*
%TO.C,H1*%
X172085000Y-112395000D03*
D14*
X173960000Y-112395000D03*
X173410825Y-113720825D03*
X172085000Y-114270000D03*
X170759175Y-113720825D03*
X170210000Y-112395000D03*
X170759175Y-111069175D03*
X172085000Y-110520000D03*
X173410825Y-111069175D03*
%TD*%
D13*
%TO.C,H2*%
X233045000Y-112395000D03*
D14*
X234920000Y-112395000D03*
X234370825Y-113720825D03*
X233045000Y-114270000D03*
X231719175Y-113720825D03*
X231170000Y-112395000D03*
X231719175Y-111069175D03*
X233045000Y-110520000D03*
X234370825Y-111069175D03*
%TD*%
%TO.C,H3*%
X234370825Y-39949175D03*
X233045000Y-39400000D03*
X231719175Y-39949175D03*
X231170000Y-41275000D03*
X231719175Y-42600825D03*
X233045000Y-43150000D03*
X234370825Y-42600825D03*
X234920000Y-41275000D03*
D13*
X233045000Y-41275000D03*
%TD*%
D14*
%TO.C,H4*%
X203834825Y-39893375D03*
X202509000Y-39344200D03*
X201183175Y-39893375D03*
X200634000Y-41219200D03*
X201183175Y-42545025D03*
X202509000Y-43094200D03*
X203834825Y-42545025D03*
X204384000Y-41219200D03*
D13*
X202509000Y-41219200D03*
%TD*%
D15*
%TO.C,U1*%
X200279000Y-53975000D03*
X200279000Y-51435000D03*
X200279000Y-48895000D03*
X200279000Y-46355000D03*
%TD*%
D16*
%TO.C,U2*%
X168834000Y-41275000D03*
X171374000Y-41275000D03*
X173914000Y-41275000D03*
X176454000Y-41275000D03*
X178994000Y-41275000D03*
X181534000Y-41275000D03*
X184074000Y-41275000D03*
X186614000Y-41275000D03*
X189154000Y-41275000D03*
X191694000Y-41275000D03*
X194234000Y-41275000D03*
X196774000Y-41275000D03*
X196774000Y-56515000D03*
X194234000Y-56515000D03*
X191694000Y-56515000D03*
X189154000Y-56515000D03*
X186614000Y-56515000D03*
X184074000Y-56515000D03*
X181534000Y-56515000D03*
X178994000Y-56515000D03*
X176454000Y-56515000D03*
X173914000Y-56515000D03*
X171374000Y-56515000D03*
D12*
X168834000Y-56515000D03*
%TD*%
%TO.C,R1*%
G36*
G01*
X206320000Y-39321100D02*
X206320000Y-38846100D01*
G75*
G02*
X206557500Y-38608600I237500J0D01*
G01*
X207057500Y-38608600D01*
G75*
G02*
X207295000Y-38846100I0J-237500D01*
G01*
X207295000Y-39321100D01*
G75*
G02*
X207057500Y-39558600I-237500J0D01*
G01*
X206557500Y-39558600D01*
G75*
G02*
X206320000Y-39321100I0J237500D01*
G01*
G37*
G36*
G01*
X208145000Y-39321100D02*
X208145000Y-38846100D01*
G75*
G02*
X208382500Y-38608600I237500J0D01*
G01*
X208882500Y-38608600D01*
G75*
G02*
X209120000Y-38846100I0J-237500D01*
G01*
X209120000Y-39321100D01*
G75*
G02*
X208882500Y-39558600I-237500J0D01*
G01*
X208382500Y-39558600D01*
G75*
G02*
X208145000Y-39321100I0J237500D01*
G01*
G37*
%TD*%
%TO.C,R2*%
G36*
G01*
X206320000Y-41831100D02*
X206320000Y-41356100D01*
G75*
G02*
X206557500Y-41118600I237500J0D01*
G01*
X207057500Y-41118600D01*
G75*
G02*
X207295000Y-41356100I0J-237500D01*
G01*
X207295000Y-41831100D01*
G75*
G02*
X207057500Y-42068600I-237500J0D01*
G01*
X206557500Y-42068600D01*
G75*
G02*
X206320000Y-41831100I0J237500D01*
G01*
G37*
G36*
G01*
X208145000Y-41831100D02*
X208145000Y-41356100D01*
G75*
G02*
X208382500Y-41118600I237500J0D01*
G01*
X208882500Y-41118600D01*
G75*
G02*
X209120000Y-41356100I0J-237500D01*
G01*
X209120000Y-41831100D01*
G75*
G02*
X208882500Y-42068600I-237500J0D01*
G01*
X208382500Y-42068600D01*
G75*
G02*
X208145000Y-41831100I0J237500D01*
G01*
G37*
%TD*%
%TO.C,R3*%
G36*
G01*
X212495000Y-39321100D02*
X212495000Y-38846100D01*
G75*
G02*
X212732500Y-38608600I237500J0D01*
G01*
X213232500Y-38608600D01*
G75*
G02*
X213470000Y-38846100I0J-237500D01*
G01*
X213470000Y-39321100D01*
G75*
G02*
X213232500Y-39558600I-237500J0D01*
G01*
X212732500Y-39558600D01*
G75*
G02*
X212495000Y-39321100I0J237500D01*
G01*
G37*
G36*
G01*
X210670000Y-39321100D02*
X210670000Y-38846100D01*
G75*
G02*
X210907500Y-38608600I237500J0D01*
G01*
X211407500Y-38608600D01*
G75*
G02*
X211645000Y-38846100I0J-237500D01*
G01*
X211645000Y-39321100D01*
G75*
G02*
X211407500Y-39558600I-237500J0D01*
G01*
X210907500Y-39558600D01*
G75*
G02*
X210670000Y-39321100I0J237500D01*
G01*
G37*
%TD*%
%TO.C,R4*%
G36*
G01*
X221151000Y-41868100D02*
X221151000Y-41393100D01*
G75*
G02*
X221388500Y-41155600I237500J0D01*
G01*
X221888500Y-41155600D01*
G75*
G02*
X222126000Y-41393100I0J-237500D01*
G01*
X222126000Y-41868100D01*
G75*
G02*
X221888500Y-42105600I-237500J0D01*
G01*
X221388500Y-42105600D01*
G75*
G02*
X221151000Y-41868100I0J237500D01*
G01*
G37*
G36*
G01*
X219326000Y-41868100D02*
X219326000Y-41393100D01*
G75*
G02*
X219563500Y-41155600I237500J0D01*
G01*
X220063500Y-41155600D01*
G75*
G02*
X220301000Y-41393100I0J-237500D01*
G01*
X220301000Y-41868100D01*
G75*
G02*
X220063500Y-42105600I-237500J0D01*
G01*
X219563500Y-42105600D01*
G75*
G02*
X219326000Y-41868100I0J237500D01*
G01*
G37*
%TD*%
%TO.C,R5*%
G36*
G01*
X210670000Y-41831100D02*
X210670000Y-41356100D01*
G75*
G02*
X210907500Y-41118600I237500J0D01*
G01*
X211407500Y-41118600D01*
G75*
G02*
X211645000Y-41356100I0J-237500D01*
G01*
X211645000Y-41831100D01*
G75*
G02*
X211407500Y-42068600I-237500J0D01*
G01*
X210907500Y-42068600D01*
G75*
G02*
X210670000Y-41831100I0J237500D01*
G01*
G37*
G36*
G01*
X212495000Y-41831100D02*
X212495000Y-41356100D01*
G75*
G02*
X212732500Y-41118600I237500J0D01*
G01*
X213232500Y-41118600D01*
G75*
G02*
X213470000Y-41356100I0J-237500D01*
G01*
X213470000Y-41831100D01*
G75*
G02*
X213232500Y-42068600I-237500J0D01*
G01*
X212732500Y-42068600D01*
G75*
G02*
X212495000Y-41831100I0J237500D01*
G01*
G37*
%TD*%
%TO.C,R6*%
G36*
G01*
X216845000Y-39321100D02*
X216845000Y-38846100D01*
G75*
G02*
X217082500Y-38608600I237500J0D01*
G01*
X217582500Y-38608600D01*
G75*
G02*
X217820000Y-38846100I0J-237500D01*
G01*
X217820000Y-39321100D01*
G75*
G02*
X217582500Y-39558600I-237500J0D01*
G01*
X217082500Y-39558600D01*
G75*
G02*
X216845000Y-39321100I0J237500D01*
G01*
G37*
G36*
G01*
X215020000Y-39321100D02*
X215020000Y-38846100D01*
G75*
G02*
X215257500Y-38608600I237500J0D01*
G01*
X215757500Y-38608600D01*
G75*
G02*
X215995000Y-38846100I0J-237500D01*
G01*
X215995000Y-39321100D01*
G75*
G02*
X215757500Y-39558600I-237500J0D01*
G01*
X215257500Y-39558600D01*
G75*
G02*
X215020000Y-39321100I0J237500D01*
G01*
G37*
%TD*%
%TO.C,R7*%
G36*
G01*
X223341000Y-39328100D02*
X223341000Y-38853100D01*
G75*
G02*
X223578500Y-38615600I237500J0D01*
G01*
X224078500Y-38615600D01*
G75*
G02*
X224316000Y-38853100I0J-237500D01*
G01*
X224316000Y-39328100D01*
G75*
G02*
X224078500Y-39565600I-237500J0D01*
G01*
X223578500Y-39565600D01*
G75*
G02*
X223341000Y-39328100I0J237500D01*
G01*
G37*
G36*
G01*
X225166000Y-39328100D02*
X225166000Y-38853100D01*
G75*
G02*
X225403500Y-38615600I237500J0D01*
G01*
X225903500Y-38615600D01*
G75*
G02*
X226141000Y-38853100I0J-237500D01*
G01*
X226141000Y-39328100D01*
G75*
G02*
X225903500Y-39565600I-237500J0D01*
G01*
X225403500Y-39565600D01*
G75*
G02*
X225166000Y-39328100I0J237500D01*
G01*
G37*
%TD*%
%TO.C,R8*%
G36*
G01*
X225086000Y-41868100D02*
X225086000Y-41393100D01*
G75*
G02*
X225323500Y-41155600I237500J0D01*
G01*
X225823500Y-41155600D01*
G75*
G02*
X226061000Y-41393100I0J-237500D01*
G01*
X226061000Y-41868100D01*
G75*
G02*
X225823500Y-42105600I-237500J0D01*
G01*
X225323500Y-42105600D01*
G75*
G02*
X225086000Y-41868100I0J237500D01*
G01*
G37*
G36*
G01*
X223261000Y-41868100D02*
X223261000Y-41393100D01*
G75*
G02*
X223498500Y-41155600I237500J0D01*
G01*
X223998500Y-41155600D01*
G75*
G02*
X224236000Y-41393100I0J-237500D01*
G01*
X224236000Y-41868100D01*
G75*
G02*
X223998500Y-42105600I-237500J0D01*
G01*
X223498500Y-42105600D01*
G75*
G02*
X223261000Y-41868100I0J237500D01*
G01*
G37*
%TD*%
%TO.C,R9*%
G36*
G01*
X216845000Y-41831100D02*
X216845000Y-41356100D01*
G75*
G02*
X217082500Y-41118600I237500J0D01*
G01*
X217582500Y-41118600D01*
G75*
G02*
X217820000Y-41356100I0J-237500D01*
G01*
X217820000Y-41831100D01*
G75*
G02*
X217582500Y-42068600I-237500J0D01*
G01*
X217082500Y-42068600D01*
G75*
G02*
X216845000Y-41831100I0J237500D01*
G01*
G37*
G36*
G01*
X215020000Y-41831100D02*
X215020000Y-41356100D01*
G75*
G02*
X215257500Y-41118600I237500J0D01*
G01*
X215757500Y-41118600D01*
G75*
G02*
X215995000Y-41356100I0J-237500D01*
G01*
X215995000Y-41831100D01*
G75*
G02*
X215757500Y-42068600I-237500J0D01*
G01*
X215257500Y-42068600D01*
G75*
G02*
X215020000Y-41831100I0J237500D01*
G01*
G37*
%TD*%
%TO.C,R10*%
G36*
G01*
X219370000Y-39321100D02*
X219370000Y-38846100D01*
G75*
G02*
X219607500Y-38608600I237500J0D01*
G01*
X220107500Y-38608600D01*
G75*
G02*
X220345000Y-38846100I0J-237500D01*
G01*
X220345000Y-39321100D01*
G75*
G02*
X220107500Y-39558600I-237500J0D01*
G01*
X219607500Y-39558600D01*
G75*
G02*
X219370000Y-39321100I0J237500D01*
G01*
G37*
G36*
G01*
X221195000Y-39321100D02*
X221195000Y-38846100D01*
G75*
G02*
X221432500Y-38608600I237500J0D01*
G01*
X221932500Y-38608600D01*
G75*
G02*
X222170000Y-38846100I0J-237500D01*
G01*
X222170000Y-39321100D01*
G75*
G02*
X221932500Y-39558600I-237500J0D01*
G01*
X221432500Y-39558600D01*
G75*
G02*
X221195000Y-39321100I0J237500D01*
G01*
G37*
%TD*%
%TO.C,R11*%
G36*
G01*
X228976000Y-39328100D02*
X228976000Y-38853100D01*
G75*
G02*
X229213500Y-38615600I237500J0D01*
G01*
X229713500Y-38615600D01*
G75*
G02*
X229951000Y-38853100I0J-237500D01*
G01*
X229951000Y-39328100D01*
G75*
G02*
X229713500Y-39565600I-237500J0D01*
G01*
X229213500Y-39565600D01*
G75*
G02*
X228976000Y-39328100I0J237500D01*
G01*
G37*
G36*
G01*
X227151000Y-39328100D02*
X227151000Y-38853100D01*
G75*
G02*
X227388500Y-38615600I237500J0D01*
G01*
X227888500Y-38615600D01*
G75*
G02*
X228126000Y-38853100I0J-237500D01*
G01*
X228126000Y-39328100D01*
G75*
G02*
X227888500Y-39565600I-237500J0D01*
G01*
X227388500Y-39565600D01*
G75*
G02*
X227151000Y-39328100I0J237500D01*
G01*
G37*
%TD*%
%TO.C,R12*%
G36*
G01*
X226973000Y-41868100D02*
X226973000Y-41393100D01*
G75*
G02*
X227210500Y-41155600I237500J0D01*
G01*
X227710500Y-41155600D01*
G75*
G02*
X227948000Y-41393100I0J-237500D01*
G01*
X227948000Y-41868100D01*
G75*
G02*
X227710500Y-42105600I-237500J0D01*
G01*
X227210500Y-42105600D01*
G75*
G02*
X226973000Y-41868100I0J237500D01*
G01*
G37*
G36*
G01*
X228798000Y-41868100D02*
X228798000Y-41393100D01*
G75*
G02*
X229035500Y-41155600I237500J0D01*
G01*
X229535500Y-41155600D01*
G75*
G02*
X229773000Y-41393100I0J-237500D01*
G01*
X229773000Y-41868100D01*
G75*
G02*
X229535500Y-42105600I-237500J0D01*
G01*
X229035500Y-42105600D01*
G75*
G02*
X228798000Y-41868100I0J237500D01*
G01*
G37*
%TD*%
M02*
