M48
; DRILL file {KiCad (5.1.10)-1} date 07/14/21 17:28:51
; FORMAT={-:-/ absolute / inch / decimal}
; #@! TF.CreationDate,2021-07-14T17:28:51+02:00
; #@! TF.GenerationSoftware,Kicad,Pcbnew,(5.1.10)-1
; #@! TF.FileFunction,Plated,1,2,PTH
FMAT,2
INCH
T1C0.0157
T2C0.0197
T3C0.0300
T4C0.0315
T5C0.0433
T6C0.0472
T7C0.0984
%
G90
G05
T1
X7.322Y-2.8128
X7.7617Y-2.9794
X8.0726Y-2.9658
X8.3853Y-3.8028
X8.3904Y-3.0875
X8.6573Y-2.7195
X9.2449Y-3.4739
X9.2462Y-2.8052
T2
X6.7012Y-4.425
X6.7228Y-4.3728
X6.7228Y-4.4772
X6.775Y-4.3512
X6.775Y-4.4988
X6.8272Y-4.3728
X6.8272Y-4.4772
X6.8488Y-4.425
X7.899Y-1.6228
X7.9206Y-1.5706
X7.9206Y-1.675
X7.9728Y-1.549
X7.9728Y-1.6966
X8.025Y-1.5706
X8.025Y-1.675
X8.0466Y-1.6228
X9.1012Y-1.625
X9.1012Y-4.425
X9.1228Y-1.5728
X9.1228Y-1.6772
X9.1228Y-4.3728
X9.1228Y-4.4772
X9.175Y-1.5512
X9.175Y-1.6988
X9.175Y-4.3512
X9.175Y-4.4988
X9.2272Y-1.5728
X9.2272Y-1.6772
X9.2272Y-4.3728
X9.2272Y-4.4772
X9.2488Y-1.625
X9.2488Y-4.425
T3
X7.885Y-1.825
X7.885Y-1.925
X7.885Y-2.025
X7.885Y-2.125
T4
X6.825Y-3.675
X6.975Y-4.375
X7.125Y-3.675
X7.275Y-2.625
X7.275Y-2.925
X7.275Y-3.275
X7.275Y-3.575
X7.275Y-3.925
X7.275Y-4.225
X7.275Y-4.375
X7.475Y-4.375
X7.775Y-4.375
X7.975Y-2.625
X7.975Y-2.925
X7.975Y-3.275
X7.975Y-3.575
X7.975Y-3.925
X7.975Y-4.225
X8.675Y-2.575
X8.675Y-2.875
X8.675Y-3.275
X8.675Y-3.575
X8.675Y-3.925
X8.675Y-4.225
T5
X6.647Y-1.625
X6.647Y-2.225
X6.747Y-1.625
X6.747Y-2.225
X6.847Y-1.625
X6.847Y-2.225
X6.947Y-1.625
X6.947Y-2.225
X7.047Y-1.625
X7.047Y-2.225
X7.147Y-1.625
X7.147Y-2.225
X7.247Y-1.625
X7.247Y-2.225
X7.347Y-1.625
X7.347Y-2.225
X7.447Y-1.625
X7.447Y-2.225
X7.547Y-1.625
X7.547Y-2.225
X7.647Y-1.625
X7.647Y-2.225
X7.747Y-1.625
X7.747Y-2.225
T6
X6.7215Y-2.4766
X6.7215Y-3.1459
X6.7215Y-3.8034
X6.7485Y-2.8636
X6.7485Y-3.5329
X6.7485Y-4.1904
X7.008Y-2.8746
X7.008Y-3.5439
X7.008Y-4.2014
X7.138Y-2.4771
X7.138Y-3.1464
X7.138Y-3.8039
X7.4184Y-2.4766
X7.4184Y-3.1459
X7.4184Y-3.8034
X7.4454Y-2.8636
X7.4454Y-3.5329
X7.4454Y-4.1904
X7.7049Y-2.8746
X7.7049Y-3.5439
X7.7049Y-4.2014
X7.8349Y-2.4771
X7.8349Y-3.1464
X7.8349Y-3.8039
X8.1152Y-2.4766
X8.1152Y-3.1459
X8.1152Y-3.8034
X8.1422Y-2.8636
X8.1422Y-3.5329
X8.1422Y-4.1904
X8.4017Y-2.8746
X8.4017Y-3.5439
X8.4017Y-4.2014
X8.5317Y-2.4771
X8.5317Y-3.1464
X8.5317Y-3.8039
X8.8121Y-2.4766
X8.8121Y-3.1459
X8.8121Y-3.8034
X8.8391Y-2.8636
X8.8391Y-3.5329
X8.8391Y-4.1904
X9.0986Y-2.8746
X9.0986Y-3.5439
X9.0986Y-4.2014
X9.2286Y-2.4771
X9.2286Y-3.1464
X9.2286Y-3.8039
T7
X6.775Y-4.425
X7.9728Y-1.6228
X9.175Y-1.625
X9.175Y-4.425
T0
M30
