%TF.GenerationSoftware,KiCad,Pcbnew,(5.1.10)-1*%
%TF.CreationDate,2021-07-14T17:28:46+02:00*%
%TF.ProjectId,kailh-keys,6b61696c-682d-46b6-9579-732e6b696361,rev?*%
%TF.SameCoordinates,Original*%
%TF.FileFunction,Soldermask,Bot*%
%TF.FilePolarity,Negative*%
%FSLAX46Y46*%
G04 Gerber Fmt 4.6, Leading zero omitted, Abs format (unit mm)*
G04 Created by KiCad (PCBNEW (5.1.10)-1) date 2021-07-14 17:28:46*
%MOMM*%
%LPD*%
G01*
G04 APERTURE LIST*
%ADD10C,1.700000*%
%ADD11O,1.600000X1.600000*%
%ADD12R,1.600000X1.600000*%
%ADD13C,5.000000*%
%ADD14C,0.800000*%
%ADD15C,1.524000*%
%ADD16C,1.600000*%
G04 APERTURE END LIST*
D10*
%TO.C,SW1*%
X178004000Y-73015700D03*
X171412700Y-72736300D03*
X181306000Y-62919200D03*
X170726900Y-62906500D03*
%TD*%
%TO.C,SW2*%
X195704000Y-73015700D03*
X189112700Y-72736300D03*
X199006000Y-62919200D03*
X188426900Y-62906500D03*
%TD*%
%TO.C,SW3*%
X213404000Y-73015700D03*
X206812700Y-72736300D03*
X216706000Y-62919200D03*
X206126900Y-62906500D03*
%TD*%
%TO.C,SW4*%
X231104000Y-73015700D03*
X224512700Y-72736300D03*
X234406000Y-62919200D03*
X223826900Y-62906500D03*
%TD*%
%TO.C,SW5*%
X178004000Y-90015700D03*
X171412700Y-89736300D03*
X181306000Y-79919200D03*
X170726900Y-79906500D03*
%TD*%
%TO.C,SW6*%
X195704000Y-90015700D03*
X189112700Y-89736300D03*
X199006000Y-79919200D03*
X188426900Y-79906500D03*
%TD*%
%TO.C,SW7*%
X213404000Y-90015700D03*
X206812700Y-89736300D03*
X216706000Y-79919200D03*
X206126900Y-79906500D03*
%TD*%
%TO.C,SW8*%
X231104000Y-90015700D03*
X224512700Y-89736300D03*
X234406000Y-79919200D03*
X223826900Y-79906500D03*
%TD*%
%TO.C,SW9*%
X178004000Y-106715700D03*
X171412700Y-106436300D03*
X181306000Y-96619200D03*
X170726900Y-96606500D03*
%TD*%
%TO.C,SW10*%
X195704000Y-106715700D03*
X189112700Y-106436300D03*
X199006000Y-96619200D03*
X188426900Y-96606500D03*
%TD*%
%TO.C,SW11*%
X213404000Y-106715700D03*
X206812700Y-106436300D03*
X216706000Y-96619200D03*
X206126900Y-96606500D03*
%TD*%
%TO.C,SW12*%
X231104000Y-106715700D03*
X224512700Y-106436300D03*
X234406000Y-96619200D03*
X223826900Y-96606500D03*
%TD*%
D11*
%TO.C,D1*%
X184785000Y-66675000D03*
D12*
X184785000Y-74295000D03*
%TD*%
D11*
%TO.C,D2*%
X184785000Y-90805000D03*
D12*
X184785000Y-83185000D03*
%TD*%
%TO.C,D3*%
X202565000Y-66675000D03*
D11*
X202565000Y-74295000D03*
%TD*%
D12*
%TO.C,D4*%
X220345000Y-65405000D03*
D11*
X220345000Y-73025000D03*
%TD*%
D12*
%TO.C,D5*%
X180975000Y-93345000D03*
D11*
X173355000Y-93345000D03*
%TD*%
%TO.C,D6*%
X184785000Y-107315000D03*
D12*
X184785000Y-99695000D03*
%TD*%
D11*
%TO.C,D7*%
X202565000Y-90805000D03*
D12*
X202565000Y-83185000D03*
%TD*%
%TO.C,D8*%
X220345000Y-83185000D03*
D11*
X220345000Y-90805000D03*
%TD*%
%TO.C,D9*%
X177165000Y-111125000D03*
D12*
X184785000Y-111125000D03*
%TD*%
%TO.C,D10*%
X197485000Y-111125000D03*
D11*
X189865000Y-111125000D03*
%TD*%
D12*
%TO.C,D11*%
X202565000Y-99695000D03*
D11*
X202565000Y-107315000D03*
%TD*%
%TO.C,D12*%
X220345000Y-107315000D03*
D12*
X220345000Y-99695000D03*
%TD*%
D13*
%TO.C,H1*%
X172085000Y-112395000D03*
D14*
X173960000Y-112395000D03*
X173410825Y-113720825D03*
X172085000Y-114270000D03*
X170759175Y-113720825D03*
X170210000Y-112395000D03*
X170759175Y-111069175D03*
X172085000Y-110520000D03*
X173410825Y-111069175D03*
%TD*%
D13*
%TO.C,H2*%
X233045000Y-112395000D03*
D14*
X234920000Y-112395000D03*
X234370825Y-113720825D03*
X233045000Y-114270000D03*
X231719175Y-113720825D03*
X231170000Y-112395000D03*
X231719175Y-111069175D03*
X233045000Y-110520000D03*
X234370825Y-111069175D03*
%TD*%
%TO.C,H3*%
X234370825Y-39949175D03*
X233045000Y-39400000D03*
X231719175Y-39949175D03*
X231170000Y-41275000D03*
X231719175Y-42600825D03*
X233045000Y-43150000D03*
X234370825Y-42600825D03*
X234920000Y-41275000D03*
D13*
X233045000Y-41275000D03*
%TD*%
D14*
%TO.C,H4*%
X203834825Y-39893375D03*
X202509000Y-39344200D03*
X201183175Y-39893375D03*
X200634000Y-41219200D03*
X201183175Y-42545025D03*
X202509000Y-43094200D03*
X203834825Y-42545025D03*
X204384000Y-41219200D03*
D13*
X202509000Y-41219200D03*
%TD*%
D15*
%TO.C,U1*%
X200279000Y-53975000D03*
X200279000Y-51435000D03*
X200279000Y-48895000D03*
X200279000Y-46355000D03*
%TD*%
D16*
%TO.C,U2*%
X168834000Y-41275000D03*
X171374000Y-41275000D03*
X173914000Y-41275000D03*
X176454000Y-41275000D03*
X178994000Y-41275000D03*
X181534000Y-41275000D03*
X184074000Y-41275000D03*
X186614000Y-41275000D03*
X189154000Y-41275000D03*
X191694000Y-41275000D03*
X194234000Y-41275000D03*
X196774000Y-41275000D03*
X196774000Y-56515000D03*
X194234000Y-56515000D03*
X191694000Y-56515000D03*
X189154000Y-56515000D03*
X186614000Y-56515000D03*
X184074000Y-56515000D03*
X181534000Y-56515000D03*
X178994000Y-56515000D03*
X176454000Y-56515000D03*
X173914000Y-56515000D03*
X171374000Y-56515000D03*
D12*
X168834000Y-56515000D03*
%TD*%
M02*
